<svg width="90" height="99" viewBox="0 0 90 99" fill="none" xmlns="http://www.w3.org/2000/svg">
<g id="&#208;&#152;&#208;&#186;&#208;&#190;&#208;&#189;&#208;&#186;&#208;&#184;/&#208;&#145;&#209;&#140;&#209;&#142;&#209;&#130;&#208;&#184;-&#208;&#177;&#208;&#187;&#208;&#190;&#208;&#182;&#208;&#184;&#208;&#186;">
<g id="Page 1">
<path id="Fill 1" fill-rule="evenodd" clip-rule="evenodd" d="M37.0044 61.8981V87.1926C37.0044 87.1926 32.3754 82.1378 25.2414 80.2684C18.1074 78.3962 13.4784 77.9128 13.4784 77.9128L13.5084 71.9379L15.4344 72.922L16.0044 71.7078V68.7116L15.7944 65.4563L14.6094 62.3087L13.5474 61.1381L13.7454 50.1812C13.7454 50.1812 22.8084 51.5613 28.7124 55.0613C34.6134 58.5612 37.0044 61.8981 37.0044 61.8981Z" fill="#B4E0F1"/>
<path id="Fill 3" fill-rule="evenodd" clip-rule="evenodd" d="M44.1264 68.4011C44.1264 68.4011 44.1924 65.7252 46.9524 63.3318C49.7154 60.9383 60.5154 53.4725 69.1704 51.5246C77.8284 49.5795 76.0044 50.1822 76.0044 50.1822V61.2266C76.0044 61.2266 70.0194 64.348 69.7614 68.0896C69.5034 71.8312 69.7374 72.8445 70.3794 74.1257C71.0214 75.4069 73.0044 75.698 73.0044 75.698V78.3506C73.0044 78.3506 62.7354 81.9933 57.6294 84.9982C50.4234 89.2406 46.2804 94.6624 44.9934 96.2842C43.7094 97.9061 44.1264 68.4011 44.1264 68.4011Z" fill="#B4E0F1"/>
<g id="Group 7">
<path id="Fill 5" fill-rule="evenodd" clip-rule="evenodd" d="M77.7378 68.2354C77.3508 69.0885 76.6128 69.9417 75.7518 70.6288C75.2988 70.987 74.8008 71.2927 74.2998 71.5315C74.0598 71.6392 73.7688 71.7499 73.5918 71.7935C73.5378 71.8227 73.3878 71.8489 73.2048 71.8634C73.1898 71.8634 73.1658 71.8576 73.1448 71.8809C73.1658 71.8751 73.0938 71.9188 73.0068 71.744C72.9168 71.6043 72.8478 71.3597 72.8028 71.1035C72.7128 70.5735 72.7158 69.965 72.7548 69.3593C72.8028 68.7478 72.8868 68.1247 73.0398 67.522C73.1118 67.2163 73.1898 66.9163 73.2948 66.6252C73.3938 66.3573 73.5018 66.0778 73.6428 65.7633L73.6338 65.7866C74.1738 64.6481 74.7018 63.6406 75.4908 62.9156C75.6828 62.7292 75.8988 62.5633 76.1088 62.4118L76.3518 62.2546C76.4688 62.2808 76.6488 62.3216 76.8078 62.3827C77.0298 62.4643 77.2398 62.5662 77.4108 62.6797C77.5818 62.7875 77.7198 62.9214 77.7738 63.0058C77.7738 63.0058 77.7648 63.0029 77.7678 62.9971L77.8728 63.2068C77.8218 63.1398 77.8998 63.332 77.9088 63.396C78.0138 63.8066 78.0528 64.3569 78.0498 64.9101C78.0228 65.9788 77.9088 67.1464 77.7378 68.2354ZM76.6758 62.0537C76.6218 62.0915 76.5948 62.109 76.5498 62.1352C76.5498 62.1352 76.5378 62.1381 76.5318 62.141L76.6488 62.0712L76.6758 62.0537ZM59.8128 53.3941C59.1498 53.6969 58.4118 54.0463 57.7398 54.4074C55.0188 55.8109 52.3728 57.3803 49.8678 59.1827C48.6258 60.097 47.4078 61.0579 46.2618 62.1178C45.6948 62.6506 45.1308 63.198 44.5998 63.7862C44.4858 63.9143 44.3778 64.0483 44.2668 64.1764C43.8468 63.6552 43.4118 63.1514 42.9588 62.6681C41.8758 61.5412 40.6998 60.525 39.4908 59.5641C38.2638 58.6236 37.0098 57.7239 35.6988 56.9173C34.3998 56.0933 33.0618 55.3363 31.6998 54.6287C31.0278 54.2589 30.2988 53.9153 29.6328 53.6038C28.9548 53.3126 28.2498 53.0068 27.5598 52.7535L32.0988 50.3775C33.5088 49.6408 35.2428 49.8621 36.4068 50.9337L42.2898 56.3554C42.9798 56.9901 43.8648 57.3104 44.7528 57.3104C45.6378 57.3104 46.5258 56.9901 47.2158 56.3554L54.0828 50.0281C54.6258 49.5331 55.4388 49.4603 56.0568 49.8621L60.8598 52.9544C60.5088 53.1 60.1548 53.2485 59.8128 53.3941ZM44.3598 95.3614L44.3508 95.3555C44.3808 95.3788 44.4018 95.3963 44.3598 95.3614ZM16.2378 65.7808C16.3758 66.0865 16.4868 66.3602 16.5828 66.6223C16.6878 66.9163 16.7598 67.2163 16.8348 67.522C16.9818 68.1276 17.0538 68.7508 17.0988 69.3593C17.1348 69.9679 17.1318 70.5735 17.0388 71.0976C16.9908 71.3539 16.9188 71.5955 16.8288 71.7266C16.7418 71.8955 16.6758 71.8372 16.7118 71.8343C16.6968 71.8081 16.6728 71.811 16.6728 71.811C16.4868 71.7965 16.3398 71.7673 16.2918 71.7382C16.1238 71.6916 15.8328 71.581 15.5988 71.4733C15.1038 71.2345 14.6118 70.9258 14.1648 70.5677C13.3248 69.8805 12.5928 69.0419 12.2178 68.2033C12.1398 67.6996 12.0678 67.1522 12.0258 66.6252C11.9628 66.0457 11.9118 65.4663 11.9058 64.913C11.8968 64.3627 11.9418 63.8182 12.0348 63.4135C12.0408 63.3553 12.1188 63.1631 12.0618 63.2388L12.1608 63.035C12.2088 62.9563 12.3348 62.8311 12.4908 62.7263C12.6558 62.6157 12.8628 62.5108 13.0818 62.4322C13.2348 62.3682 13.4088 62.3245 13.5198 62.2983L13.7418 62.438C13.9548 62.5865 14.1708 62.7496 14.3658 62.9301C15.1548 63.6464 15.6918 64.6481 16.2378 65.7808ZM13.3338 62.1818C13.3248 62.176 13.3128 62.1731 13.3068 62.1702C13.2588 62.144 13.2318 62.1265 13.1748 62.0857L13.2018 62.1032L13.3338 62.1818ZM27.5178 41.9363C27.8718 40.0903 28.1478 37.9792 28.1568 36.0808C28.2108 34.1386 28.1658 32.1994 28.0668 30.2805L27.7398 24.6026C27.6738 22.7361 27.6798 20.9512 28.0338 19.1721C28.2918 17.3698 28.8528 15.646 29.5698 14.0125C30.2838 12.3703 31.3398 10.9056 32.5938 9.64775C35.1138 7.11452 38.6568 5.65572 42.3438 5.20149L43.7088 5.06464L45.1758 5.01222L46.5198 5.05881L47.8788 5.22187C49.6818 5.51014 51.4098 6.16237 52.9668 7.09705C54.5268 8.03172 55.9188 9.24884 57.0978 10.6436C58.2888 12.0587 59.2128 13.5874 59.9658 15.3024C60.6798 16.9388 61.1418 18.7645 61.5018 20.5873C61.7868 22.0723 61.9878 23.5893 62.1318 25.0947C59.8278 24.7482 57.5148 24.3027 55.2438 23.7582C53.9358 23.432 52.6338 23.0855 51.3498 22.6925C50.6988 22.5148 50.0718 22.279 49.4358 22.0723C48.7998 21.8597 48.1668 21.6471 47.5518 21.3909C46.2948 20.9279 45.0918 20.3747 43.9008 19.8069C43.3008 19.5274 42.7488 19.175 42.1728 18.8664C41.5848 18.5636 41.0568 18.1938 40.5318 17.8211C40.0038 17.4513 39.4518 17.1077 39.0078 16.6622C38.5668 16.2313 37.9998 15.8411 37.6578 15.3839C37.3038 14.9151 36.9078 14.5308 36.5568 14.0183L35.6118 12.2509L33.5418 13.3137L34.5228 15.0607C34.7328 15.3665 34.9818 15.6751 35.2368 15.9808C35.1288 16.1847 34.9998 16.4205 34.8198 16.7117C34.3428 17.4979 33.6168 18.5053 32.7528 19.3876C31.8978 20.2786 30.9078 21.024 30.1128 21.4899C29.7168 21.7316 29.3748 21.9005 29.1258 22.0082C28.8828 22.1218 28.7418 22.1887 28.7418 22.1887L29.3778 23.7232C29.3778 23.7232 29.5428 23.6533 29.8308 23.534C30.1248 23.4233 30.5328 23.2428 31.0008 22.9865C31.9458 22.4886 33.1218 21.6792 34.1388 20.7154C35.1648 19.7603 36.0318 18.6655 36.6138 17.8007C36.6618 17.7308 36.6978 17.6697 36.7428 17.6027C37.0158 17.8298 37.2918 18.0482 37.5588 18.2957C38.0838 18.7907 38.6898 19.1605 39.2808 19.5536C39.8658 19.9554 40.4568 20.3456 41.0868 20.6542C41.7108 20.9774 42.3138 21.3356 42.9528 21.6209C44.2248 22.2004 45.4998 22.7478 46.8138 23.202C47.4618 23.4583 48.1128 23.6475 48.7758 23.8543C49.4388 24.0581 50.0718 24.2503 50.7408 24.4191C52.0728 24.7977 53.3718 25.0539 54.7188 25.3596C56.0778 25.6595 57.2568 25.8896 58.5258 26.0876C58.2708 29.3255 56.3988 45.148 44.2038 45.148C34.8558 45.148 31.8588 32.1528 31.0038 26.5651L29.3178 26.8068C30.0678 31.7073 32.3988 41.9043 39.0198 45.5032C38.7228 45.8672 38.3598 46.304 37.9128 46.799L37.4898 47.2736C36.9948 47.8355 36.6198 48.249 36.0258 48.744C34.5318 48.1063 32.7888 48.1384 31.2888 48.9245L25.6668 51.8654C25.8708 50.5027 26.1858 48.9857 26.4528 47.5648L27.5178 41.9363ZM40.6188 46.2079C41.7108 46.5864 42.9018 46.799 44.2038 46.799C45.9888 46.799 47.5698 46.499 48.9798 45.9837C49.6068 46.8339 50.6958 48.1704 52.1718 49.5098L46.0428 55.1557C45.3198 55.8225 44.1858 55.8225 43.4628 55.1557L37.5798 49.7369C37.5558 49.7136 37.5258 49.6991 37.5018 49.6758C37.9938 49.2303 38.3658 48.8197 38.7828 48.3509L39.1968 47.888C39.8058 47.2124 40.2858 46.6272 40.6188 46.2079ZM63.2658 52.0955C63.1218 52.145 62.9778 52.1915 62.8338 52.241L56.9988 48.482C55.9158 47.786 54.5718 47.8152 53.4978 48.447C52.1928 47.2881 51.1878 46.1001 50.5608 45.279C58.4448 41.0773 59.9508 29.3924 60.2118 26.3176C60.4068 26.3438 60.6078 26.3671 60.8088 26.3904C60.7968 26.5185 60.7848 26.6583 60.7698 26.8184C60.7368 27.1911 60.6948 27.6425 60.6468 28.1608C60.6078 28.6558 60.5238 29.2789 60.5088 29.9864C60.4578 32.6623 60.6708 36.0691 60.9948 39.5108C61.1628 41.22 61.3458 42.9496 61.6398 44.5656C61.9248 46.17 62.2428 47.6434 62.5248 48.9013C62.8398 50.261 63.0948 51.3617 63.2658 52.0955ZM76.0038 81.6935C73.0038 82.0109 61.0908 83.8046 48.7068 93.4571L49.4538 94.747C63.2478 83.9967 75.4428 83.2834 75.5688 83.2775L76.0038 83.2397V81.6935ZM76.0038 73.823L76.8738 73.1563C78.1578 72.175 79.2198 70.952 79.9998 69.5573L80.3058 69.0128L80.3598 68.8701C80.6238 67.5395 80.8098 66.2758 80.7738 64.8898C80.7528 64.1997 80.7198 63.495 80.4918 62.6972C80.4108 62.4643 80.3778 62.3594 80.2068 62.0071L80.0868 61.8033C79.9968 61.6723 79.8978 61.5412 79.7958 61.4189C79.4388 61.0229 79.0608 60.7696 78.6738 60.5658C78.2898 60.3649 77.6898 60.2251 77.2938 60.1232C76.9578 60.0417 76.0038 59.9922 76.0038 59.9805V50.1824L75.4818 50.0572H75.4878C72.4128 50.0572 69.4158 50.6891 66.4278 51.4782C65.9298 51.6121 65.4318 51.5975 64.9368 51.7373C64.7958 51.0035 64.5918 49.8825 64.3488 48.6275C64.1178 47.3726 63.8568 45.8701 63.6378 44.3094C63.4128 42.7603 63.2958 41.0628 63.1938 39.3681C62.9958 35.9963 62.9148 32.5575 63.0528 30.1087C63.0858 29.5351 63.1788 28.9877 63.2418 28.449C63.3078 27.9307 63.3678 26.2623 63.4158 25.8896C63.4608 25.5402 63.4968 23.8513 63.5208 23.8513C63.5208 23.8513 63.5958 21.5831 63.2598 19.67C62.9058 17.757 62.4678 16.1643 61.6848 14.2862C60.9318 12.4984 59.8908 10.8445 58.6188 9.30417C57.4218 7.85119 56.0088 6.61369 54.3978 5.57128C52.5828 4.40075 49.2888 3.26808 47.1258 3.02058C46.9848 3.00602 46.8408 2.98855 46.6998 2.97399L45.1098 2.91284L43.6398 2.95069L42.0798 3.08172C38.0208 3.5214 33.9138 5.10831 30.9168 8.03172C29.4348 9.47596 28.1898 11.1735 27.3498 13.0225C26.5038 14.8656 25.8588 16.7961 25.5468 18.7558C25.1298 20.7095 25.0908 22.7536 25.1328 24.6812L25.3788 30.3912C25.4658 32.7555 25.4688 35.0966 25.3038 37.4347C25.2078 38.7829 24.9798 40.1223 24.7098 41.45L23.5698 47.0173C23.2908 48.4295 22.9818 49.7428 22.7358 51.2045C19.8708 50.4183 16.9668 49.8039 14.0058 49.3642L13.0038 49.2186V50.1824C13.0038 53.4407 13.0548 56.6961 13.0338 59.9543C12.7848 59.9805 12.5688 60.0213 12.3348 60.0737C11.9358 60.1756 11.5548 60.3154 11.1618 60.5163C10.7718 60.723 10.3908 60.9734 10.0248 61.3782C9.91679 61.5034 9.82079 61.6373 9.72779 61.7742L9.60479 61.9751C9.42779 62.339 9.39779 62.441 9.31079 62.6797C9.07079 63.4834 9.02879 64.1938 9.00479 64.8898C8.98979 65.5828 9.01679 66.2525 9.07979 66.9105C9.16379 67.5773 9.25979 68.2004 9.39779 68.8847L9.43079 69.0419L9.48179 69.1584C10.1808 70.7075 11.3268 71.8023 12.5988 72.638C13.2378 73.0543 13.9158 73.4125 14.6688 73.6804C15.0648 73.8056 15.4128 73.9133 15.9108 73.9832C16.1928 74.0269 16.3788 74.0298 16.5288 74.0269C16.8588 74.0298 17.1798 73.9628 17.4858 73.8638C18.1398 73.5959 18.5778 73.0485 18.7428 72.603C18.9408 72.143 19.0008 71.7324 19.0428 71.3422C19.1058 70.5648 19.0338 69.8572 18.9318 69.1613C18.8298 68.4683 18.6438 67.8044 18.4848 67.1376L18.2088 66.1389C18.1038 65.7808 17.9958 65.443 17.8878 65.146L17.8788 65.1256C17.4588 63.9609 16.9428 62.6302 15.9678 61.5092C15.7338 61.2238 15.4758 60.9647 15.1968 60.7143L14.7678 60.3561L14.7528 60.3474C14.7288 57.2959 14.7468 54.2473 14.7528 51.1986C17.3628 51.6733 19.9758 52.276 22.5138 53.0389C23.9418 53.464 25.3548 53.9444 26.7228 54.4948C27.4218 54.7626 28.0608 55.0596 28.7298 55.3595C29.4288 55.7031 30.0588 56.0147 30.7008 56.3845C32.0058 57.095 33.2778 57.852 34.5078 58.6644C35.7918 59.4884 37.0068 60.4027 38.1828 61.349C39.4008 62.3245 40.5288 63.4018 41.5548 64.5636C41.9178 64.9742 42.2688 65.3935 42.5868 65.8273C42.9498 66.3049 42.9588 66.0807 43.1928 66.5262L43.2528 81.9061L42.9618 89.7388L42.6588 93.6522V94.0103L42.7698 93.8414C41.7198 92.9912 41.1948 92.898 40.0758 92.1293L38.5128 90.9413L36.5298 89.6368C35.4528 88.9264 34.3338 88.2771 33.1878 87.6743C32.0448 87.0745 30.9048 86.4747 29.7228 85.9476C28.4868 85.374 27.2328 84.8557 25.9548 84.3811C24.6708 83.9152 23.3808 83.4726 22.0638 83.1087C20.7528 82.7243 18.5388 82.4186 17.1948 82.1536C16.0998 81.9556 13.0038 81.8013 13.0038 81.7023V82.4506V82.5001C13.0038 82.5001 15.5658 82.9893 17.5188 83.4406C18.7968 83.7376 20.1828 84.2181 21.4428 84.6082C22.7058 84.9751 23.9958 85.5167 25.2258 85.9826C26.6388 86.53 28.0608 87.1997 29.4048 87.8519C30.6018 88.4343 31.7658 89.0632 32.9088 89.7388C33.8628 90.3007 34.8318 90.8569 35.7378 91.4916L37.3788 92.5835L38.9568 93.757C39.7278 94.3335 40.4838 94.9304 41.2218 95.5477L42.7668 96.8376L43.0218 97.0444C43.0218 97.0444 43.1868 97.1608 43.3008 97.2162C43.4208 97.2744 43.5108 97.3064 43.6218 97.3385C44.0568 97.452 44.5218 97.4054 44.9118 97.2045C45.3078 97.0153 45.7068 96.6455 45.8478 96.2203C45.9138 96.0369 46.0038 95.7283 46.0038 95.6555V95.408L45.9348 94.4296L45.9138 90.5162L45.9438 82.6835L46.0038 67.0212V67.0095V66.7416L45.8898 66.5465C45.8778 66.5262 45.8568 66.5087 45.8478 66.4883C46.0908 66.1505 46.3548 65.804 46.6368 65.4779C47.0898 64.9451 47.5848 64.4326 48.0918 63.9289C49.1178 62.9272 50.2338 61.9925 51.3828 61.0957C53.7078 59.3225 56.2128 57.7385 58.8138 56.3059C59.4588 55.9361 60.0768 55.6274 60.7788 55.2809C61.4478 54.981 62.0748 54.6957 62.7738 54.4278C64.1358 53.8775 66.1788 53.4261 67.6068 53.0068C70.1448 52.2585 73.0038 51.3268 76.0038 51.1288V60.7085V61.2268C75.7248 61.4772 74.8638 61.7742 74.6268 62.0537C73.6488 63.1689 72.2718 65.7808 72.1698 66.136L71.6418 67.1376C71.4888 67.8073 71.1888 68.4712 71.0898 69.1642C70.9908 69.8572 70.8588 70.5648 70.9278 71.3393C70.9668 71.7266 70.9998 72.1342 71.2008 72.5855C71.3658 73.0223 71.7828 73.5581 72.4188 73.8172C72.7218 73.9133 73.0278 73.9774 73.3488 73.9745C73.4988 73.9745 74.3178 73.9715 74.5938 73.9279C74.8938 73.8842 76.0038 73.823 76.0038 73.7561V73.823Z" fill="black"/>
</g>
<path id="Fill 8" fill-rule="evenodd" clip-rule="evenodd" d="M75.0044 61.8869H76.3094V49.9312L75.0044 50.0564V61.8869Z" fill="black"/>
<mask id="mask0" mask-type="alpha" maskUnits="userSpaceOnUse" x="9" y="2" width="72" height="96">
<path id="Clip 11" fill-rule="evenodd" clip-rule="evenodd" d="M9 97.3991H80.778V2.91229H9V97.3991Z" fill="white"/>
</mask>
<g mask="url(#mask0)">
<path id="Fill 10" fill-rule="evenodd" clip-rule="evenodd" d="M13.0378 82.3016H14.7928V71.9357H13.0378V82.3016Z" fill="black"/>
<path id="Fill 12" fill-rule="evenodd" clip-rule="evenodd" d="M74.25 82.3016H76.005V71.9357H74.25V82.3016Z" fill="black"/>
</g>
</g>
</g>
</svg>
