<svg width="90" height="96" viewBox="0 0 90 96" fill="none" xmlns="http://www.w3.org/2000/svg">
<g id="&#208;&#152;&#208;&#186;&#208;&#190;&#208;&#189;&#208;&#186;&#208;&#184;/&#208;&#177;&#208;&#184;&#208;&#182;&#209;&#131;&#209;&#130;&#208;&#181;&#209;&#128;&#208;&#184;&#209;&#143;">
<g id="Page 1">
<path id="Fill 1" fill-rule="evenodd" clip-rule="evenodd" d="M21.7954 11.3988L10.7494 28.5348L43.9744 48.4188L52.1974 18.0348L37.9534 7.1928L21.7954 11.3988Z" fill="#F18B98"/>
<g id="Group 7">
<g id="Group 4">
<mask id="mask0" mask-type="alpha" maskUnits="userSpaceOnUse" x="9" y="3" width="73" height="93">
<path id="Clip 3" fill-rule="evenodd" clip-rule="evenodd" d="M81.924 95.7221V3.00007L9 3.00007V95.7221H81.924Z" fill="white"/>
</mask>
<g mask="url(#mask0)">
<path id="Fill 2" fill-rule="evenodd" clip-rule="evenodd" d="M11.9033 28.2303L43.8173 48.1323L53.6603 30.2433L53.7653 29.9793L56.0393 25.9203L61.2233 16.5003L17.9873 27.1503C18.3563 26.2923 19.0493 25.6893 19.8953 25.4583L60.0683 14.3673L44.7833 7.6083C44.2913 7.3893 43.7303 7.3383 43.2053 7.4673L23.4803 12.2553L11.9033 28.2303ZM18.1733 72.3603C19.6703 77.0103 22.6403 80.7333 24.8723 83.0403C27.6203 85.8783 30.9563 88.1403 34.7903 89.7663C39.3113 91.6833 44.2073 92.5173 48.9503 92.1783C50.9813 92.0313 53.0093 91.7043 54.9743 91.2003C59.8853 89.9433 64.4453 87.5853 68.1713 84.3753C74.3093 79.0863 78.2303 71.2473 78.6593 63.4083C79.0133 56.9253 77.3123 50.5443 73.8713 45.4353C71.5493 41.9823 68.6693 39.1053 65.3123 36.8823C62.9633 35.3253 59.2673 33.2943 54.9923 32.4453C54.6383 32.3733 54.4253 32.3283 54.2363 32.3763C53.9873 32.4393 53.8853 32.6253 53.7533 32.8593L44.0873 49.1103C43.4093 48.7743 41.1173 47.4633 37.2593 45.2013L31.8713 42.0813L28.5863 40.1493C28.2053 39.9663 27.9653 39.8283 27.7943 39.7263C27.5213 39.5643 27.3353 39.4563 27.0923 39.5193C26.9153 39.5643 26.7773 39.6843 26.5253 39.8943C25.2023 41.0133 24.0893 42.2343 23.0753 43.3923C20.9543 45.8163 19.2263 48.8073 18.0713 52.0473C16.8953 55.3413 16.3013 58.8363 16.3553 62.1513C16.3973 64.5903 16.7543 67.1703 17.4803 70.2633L18.0623 70.1253L17.8433 70.4613L17.4923 70.2903L18.1733 72.3603ZM55.8893 94.6353C53.1413 95.3373 50.3153 95.7033 47.4953 95.7213C34.5413 95.8083 22.5533 88.6743 16.9553 77.5503C13.7933 71.2773 12.7073 64.0503 13.8923 57.2013C15.1493 49.9443 19.0523 43.3053 24.8753 38.5083L25.2083 38.2323L8.99927 28.8663L21.4043 9.4803C21.4613 9.3933 21.5693 9.3333 21.7703 9.2823L22.2173 9.1833L44.3873 3.0063C44.5103 2.9763 44.6453 3.0573 44.8553 3.1923L64.7843 14.3403L55.2653 30.3303L55.6823 30.4143C59.4173 31.1463 63.1463 32.6013 66.4703 34.6203C73.0673 38.6373 78.0653 44.8203 80.1893 51.5853C82.3343 58.4163 82.4933 65.1333 80.6543 71.0133C78.2183 78.8043 73.2833 85.4763 66.7523 89.8023C63.4013 92.0223 59.7473 93.6483 55.8923 94.6323L55.8893 94.6353Z" fill="#181716"/>
</g>
</g>
<path id="Fill 5" fill-rule="evenodd" clip-rule="evenodd" d="M59.1407 39.3114C59.1407 39.3114 59.5757 39.5394 60.3887 39.9684C61.2377 40.4544 62.4287 41.1744 63.8237 42.2874C65.2097 43.4004 66.7967 44.9034 68.2907 46.9014C69.7907 48.8934 71.1257 51.4254 72.0287 54.3654L72.3617 55.5444L72.5897 56.6484C72.7607 57.3744 72.9047 58.1514 72.9707 59.0244C73.0757 59.8734 73.1537 60.7344 73.1267 61.5864C73.1477 62.4444 73.1297 63.3144 73.0157 64.1934C72.6917 67.7064 71.5847 71.3544 69.6527 74.6994C67.6847 78.0174 64.8887 81.0024 61.4837 83.2284C58.1237 85.4694 53.9867 86.8344 49.9727 87.1704C41.6417 87.9804 33.3287 84.2364 28.4087 78.3144C25.9067 75.3834 24.1817 71.9934 23.2547 68.6034C22.9397 67.6614 22.8737 66.9444 22.6757 66.1194C22.5737 65.2584 22.3997 64.3884 22.3817 63.5694C22.2407 61.9194 22.3337 60.3144 22.4957 58.7934C22.8407 55.7394 23.8127 53.0574 24.9017 50.8404C26.0087 48.6204 27.2807 46.8624 28.4327 45.5184C29.6147 44.1924 30.6407 43.2504 31.3727 42.6504C32.1137 42.0624 32.5097 41.7474 32.5097 41.7474L33.5867 43.1634C33.5867 43.1634 33.2297 43.4664 32.5607 44.0364C31.9007 44.6154 30.9827 45.5214 29.9357 46.7754C27.8957 49.2894 25.4567 53.5044 24.8597 59.0664C24.7337 60.4464 24.6647 61.8954 24.8117 63.3864C24.8357 64.1424 25.0037 64.8474 25.0877 65.6004C25.2797 66.3534 25.4087 67.2894 25.6577 67.9254C26.5367 70.9734 28.1267 73.9944 30.3977 76.5924C32.6477 79.2114 35.6177 81.3534 38.9747 82.6974C42.3017 84.0804 46.0697 84.6534 49.6487 84.2664C53.3687 83.8614 56.8667 82.7724 59.9207 80.7924C62.9567 78.8514 65.4737 76.2234 67.2617 73.2834C69.0107 70.3164 70.0337 67.0674 70.3547 63.9294C70.5437 62.3724 70.5257 60.7824 70.3697 59.3724C70.2887 58.0254 69.8837 56.2404 69.5627 55.1034C67.9907 49.7604 64.8617 46.0764 62.4227 43.9704C61.1927 42.9054 60.1127 42.1944 59.3957 41.7444C58.6127 41.2914 58.1927 41.0484 58.1927 41.0484L59.1407 39.3114Z" fill="#181716"/>
</g>
</g>
</g>
</svg>
