<svg width="90" height="96" viewBox="0 0 90 96" fill="none" xmlns="http://www.w3.org/2000/svg">
<g id="&#208;&#152;&#208;&#186;&#208;&#190;&#208;&#189;&#208;&#186;&#208;&#184;/&#208;&#184;&#208;&#189;&#209;&#129;&#209;&#130;&#209;&#128;&#209;&#131;&#208;&#188;&#208;&#181;&#208;&#189;&#209;&#130;&#209;&#139;">
<g id="Page 1">
<path id="Fill 1" fill-rule="evenodd" clip-rule="evenodd" d="M31.4926 58.3043C28.0096 53.6093 27.3496 54.8933 27.3496 54.8933C27.3496 54.8933 14.6086 59.1923 8.3926 51.3323C2.1766 43.4723 -1.1414 32.3063 3.9076 25.3943C8.9566 18.4823 15.0076 16.1063 20.1736 15.6533C25.3396 15.1973 39.7426 18.5753 47.3446 18.6533C62.4946 18.8063 73.9486 17.8493 73.9486 17.8493L76.7716 32.9153C76.7716 32.9153 60.0076 37.4213 53.5096 42.4613C47.0116 47.5013 43.2916 52.2053 44.2846 57.3533C44.2846 57.3533 41.8306 62.4563 49.1686 72.6953C54.3616 79.9373 54.7996 84.3203 52.7986 85.5143C50.8006 86.7083 46.9486 88.1003 42.8806 81.8033C38.8126 75.5063 31.4926 58.3043 31.4926 58.3043Z" fill="#F6CEA9"/>
<g id="Group 5">
<path id="Fill 3" fill-rule="evenodd" clip-rule="evenodd" d="M82.4393 7.48193C82.4393 7.48193 82.7873 8.27393 83.4413 9.76193C84.0653 11.2619 84.9383 13.4849 85.8353 16.3829C86.7263 19.2839 87.5333 22.8839 88.1273 27.0689C88.1813 27.6569 88.3013 27.9599 88.3013 28.7999C88.2563 29.5379 87.8753 30.3569 87.0653 30.7709C85.7573 31.2299 84.8363 31.4429 83.6573 31.8029C81.4073 32.4569 79.0433 33.1439 76.5743 33.8639C71.6063 35.1899 66.4943 37.1159 61.2383 39.7229C55.9433 42.2789 50.7413 45.4139 45.1643 48.7979C39.5063 52.0289 33.2123 54.6599 26.6393 56.4899C25.0793 56.9339 23.2643 57.5159 21.4073 57.6179C19.5653 57.7169 17.6783 57.6239 15.8903 57.1259C12.2963 56.2049 9.01427 54.2099 6.47627 51.5549C3.91727 48.9779 2.03626 45.5159 1.00126 42.1829C-0.0997351 38.6279 -0.240735 34.9529 0.323265 31.3769C0.986265 27.8369 2.42027 24.4109 4.76027 21.6869C5.89127 20.3039 7.25326 19.1159 8.75326 18.1709C9.47926 17.6789 10.2983 17.2709 11.1443 16.9019C12.0083 16.5179 12.6173 16.3619 13.5473 16.0589C19.7273 14.2439 26.0243 13.0439 31.9733 12.6629C34.9523 12.4349 37.9013 12.4769 40.6223 12.4709C43.3763 12.4529 46.0373 12.3689 48.5843 12.2219C53.6813 11.9309 58.3313 11.3879 62.3813 10.5989C66.3863 9.83693 69.9053 8.69393 72.8003 7.95593C75.6923 7.16693 77.9663 6.54593 79.5173 6.12293C79.8863 5.97293 80.6513 5.94293 81.0293 6.13193C81.4673 6.29393 81.7553 6.54293 81.9563 6.75293C82.1543 6.96893 82.2683 7.15793 82.3553 7.31093C82.4033 7.40693 82.4273 7.45493 82.4273 7.45493L82.4393 7.48193ZM81.0773 8.13893C81.0773 8.13893 81.0533 8.09093 81.0053 7.99793C80.9843 7.97393 80.9363 7.88693 80.8493 7.79993C80.6333 7.63493 80.4773 7.41593 79.9373 7.61693C78.3953 8.06393 76.1303 8.72093 73.2503 9.55793C70.3463 10.3469 66.9383 11.5259 62.7473 12.4019C58.6073 13.2779 53.8823 13.9019 48.7193 14.2799C46.1363 14.4719 43.4453 14.6009 40.6553 14.6639C37.8353 14.7149 35.0483 14.7209 32.1533 14.9879C26.3423 15.4619 20.3813 16.6889 14.2583 18.5909C8.45927 20.1269 4.15427 25.6469 3.23927 31.8629C2.79527 34.9499 3.00827 38.2439 3.96827 41.2049C4.49327 42.9269 5.04527 44.1869 5.84627 45.6269C6.65026 46.9979 7.56827 48.3149 8.68126 49.4459C10.8263 51.7799 13.6103 53.5229 16.6163 54.3509C18.1163 54.8039 19.6823 54.8939 21.2213 54.8459C22.7723 54.7889 24.2213 54.3509 25.9103 53.9039C32.3693 52.2269 38.4623 49.7999 44.0243 46.7549C49.4903 43.5689 55.0013 40.3799 60.3713 37.9109C65.7203 35.3639 71.1143 33.4469 76.1093 32.2109C78.5903 31.5359 80.9663 30.8909 83.2283 30.2759C84.3113 29.9759 85.3673 29.6849 86.3933 29.4029C86.5943 29.3189 86.7803 29.0309 86.7893 28.7009C86.8073 28.4639 86.6723 27.7229 86.6213 27.2729C86.0513 23.1839 85.1393 19.6799 84.3053 16.8419C83.4713 13.9949 82.6403 11.8139 82.0313 10.3469C81.4013 8.88893 81.0653 8.11193 81.0653 8.11193L81.0773 8.13893Z" fill="black"/>
</g>
<path id="Fill 6" fill-rule="evenodd" clip-rule="evenodd" d="M71.9891 8.93994C71.9891 8.93994 73.6061 13.3619 74.7941 17.9009C76.0451 22.4219 76.7621 27.0749 76.7621 27.0749L75.3221 27.3179C75.3221 27.3179 74.4671 22.7939 73.0841 18.3899C71.7611 13.9679 70.0331 9.70494 70.0331 9.70494L71.9891 8.93994Z" fill="black"/>
<path id="Fill 8" fill-rule="evenodd" clip-rule="evenodd" d="M18.6863 34.2402L33.7043 30.8892L34.0613 32.1522L19.4993 37.1292L18.6863 34.2402Z" fill="black"/>
<path id="Fill 10" fill-rule="evenodd" clip-rule="evenodd" d="M16.912 28.7007C16.912 28.7007 17.803 28.3467 19.237 27.8697C20.647 27.3957 22.549 26.8527 24.472 26.4297C28.318 25.5567 32.215 25.2627 32.215 25.2627L32.395 26.5617C32.395 26.5617 28.63 27.2697 25.048 28.5087C23.257 29.1147 21.511 29.8257 20.233 30.4167C18.979 30.9957 18.115 31.4487 18.115 31.4487L16.912 28.7007Z" fill="black"/>
<path id="Fill 12" fill-rule="evenodd" clip-rule="evenodd" d="M20.4851 39.8051C20.4851 39.8051 21.4271 39.7271 22.8401 39.6071C24.2411 39.4661 26.1071 39.1901 27.9521 38.7881C31.6541 38.0171 35.1791 36.5381 35.1791 36.5381L35.7431 37.7231C35.7431 37.7231 32.2991 39.6341 28.5281 40.8641C26.6561 41.4941 24.7361 41.9981 23.2781 42.3101C21.8261 42.5921 20.8571 42.7811 20.8571 42.7811L20.4851 39.8051Z" fill="black"/>
<path id="Fill 14" fill-rule="evenodd" clip-rule="evenodd" d="M10.7047 18.7153C10.7047 18.7153 10.5187 19.3423 10.1917 20.4373C10.0207 20.9863 9.82269 21.6493 9.66369 22.4083C9.50169 23.1703 9.25569 24.0163 9.12669 24.9733C8.77569 26.8723 8.56269 29.1193 8.57769 31.5253C8.64369 32.7223 8.64969 33.9733 8.87469 35.2153C9.01569 36.4723 9.33669 37.7143 9.62769 38.9623C10.0237 40.1803 10.3897 41.4103 10.9177 42.5593C11.3677 43.7413 12.0097 44.8153 12.5707 45.8773C13.8037 47.9473 15.1447 49.7653 16.4317 51.2143C17.0347 51.9703 17.6887 52.5733 18.2287 53.1463C18.7657 53.7223 19.2727 54.1843 19.6957 54.5623C20.5327 55.3213 21.0127 55.7563 21.0127 55.7563L20.3617 56.5183C20.3617 56.5183 19.8727 56.0773 19.0117 55.3063C18.5797 54.9253 18.0577 54.4543 17.5027 53.8693C16.9477 53.2843 16.2757 52.6693 15.6487 51.8983C14.3227 50.4193 12.9247 48.5563 11.6407 46.4233C11.0497 45.3283 10.3807 44.2183 9.90669 42.9943C9.35169 41.8063 8.96169 40.5313 8.54469 39.2653C8.23269 37.9723 7.89369 36.6823 7.73769 35.3773C7.49769 34.0873 7.48269 32.7913 7.40769 31.5463C7.37769 29.0533 7.58169 26.7283 7.93269 24.7693C8.05869 23.7823 8.31069 22.8943 8.47569 22.0993C8.64069 21.2983 8.83569 20.6323 9.00069 20.0863C9.32169 18.9883 9.50769 18.3613 9.50769 18.3613L10.7047 18.7153Z" fill="black"/>
<g id="Group 18">
<path id="Fill 16" fill-rule="evenodd" clip-rule="evenodd" d="M51.0968 44.3682C51.0968 44.3682 49.9538 45.6132 48.2948 48.0582C47.4818 49.2822 46.5218 50.8092 45.7538 52.6692C45.0338 54.4602 44.3318 56.9262 45.6038 58.6962C47.1278 60.6492 49.1588 62.5242 51.3008 64.5552C53.4338 66.5952 55.7588 68.7102 57.7628 71.3862C58.7498 72.6912 59.6498 74.3262 60.0728 75.9942C60.5168 77.6802 60.7988 79.3392 61.0328 81.0432C61.2608 82.7382 61.4288 84.4482 61.5548 86.1672C61.5998 87.0792 61.7138 87.7662 61.6748 88.8672C61.5488 90.0492 60.9068 91.0212 60.0428 91.6722C59.6138 91.9962 59.1248 92.2392 58.6118 92.3922C58.3508 92.4702 58.1048 92.5212 57.8168 92.5602L57.1688 92.6262C56.1908 92.6952 55.2818 92.6412 54.3518 92.4732C52.5158 92.1372 50.7458 91.3152 49.3538 90.0432C46.8728 87.3972 44.9528 84.8442 42.9578 82.2282C39.0848 77.0142 35.8508 71.8722 33.7988 66.9432C33.2978 65.7132 32.9168 64.4172 32.6498 63.2772C32.3948 62.1282 32.0978 61.6602 31.3748 60.9762C30.0518 59.7372 28.4348 58.9632 27.1388 58.3962C25.8188 57.8352 24.7298 57.4932 23.9918 57.2712C23.2628 57.0732 22.8728 56.9682 22.8728 56.9682L23.4338 54.6012C23.4338 54.6012 23.8688 54.7242 24.6908 54.9552C25.4858 55.2042 26.6498 55.5822 28.0868 56.2122C29.5118 56.8662 31.2668 57.6732 33.0008 59.3142C33.8648 60.0102 34.7078 61.5642 34.8728 62.7372C35.1278 63.8832 35.4338 64.9632 35.8868 66.1242C37.7258 70.7322 40.8578 75.8832 44.6018 81.0162C46.4678 83.5362 48.5588 86.3082 50.6648 88.6122C51.7598 89.6352 53.1878 90.3252 54.7028 90.6192C56.1638 90.8652 57.9758 90.9462 58.9478 90.2022C59.4638 89.8392 59.8148 89.2422 59.8748 88.7112C59.9138 88.1022 59.8178 87.0792 59.7818 86.2872C59.6708 84.5982 59.5238 82.9182 59.3198 81.2652C58.8788 77.9262 58.4138 74.7642 56.4518 72.3432C54.6218 69.8382 52.3508 67.7082 50.2478 65.6592C48.1388 63.6132 46.0688 61.6782 44.4458 59.5482C43.5338 58.3032 43.3868 56.7732 43.5398 55.5312C43.6808 54.2562 44.0798 53.1492 44.4908 52.1472C45.3428 50.1492 46.3538 48.5802 47.2088 47.3172C48.9488 44.8122 50.1488 43.5282 50.1488 43.5282L51.0968 44.3682Z" fill="black"/>
</g>
</g>
</g>
</svg>
