<svg width="90" height="78" viewBox="0 0 90 78" fill="none" xmlns="http://www.w3.org/2000/svg">
<g id="&#208;&#152;&#208;&#186;&#208;&#190;&#208;&#189;&#208;&#186;&#208;&#184;/&#208;&#154;&#208;&#190;&#209;&#128;&#208;&#183;&#208;&#184;&#208;&#189;&#208;&#176;/&#208;&#159;&#209;&#131;&#209;&#129;&#209;&#130;&#208;&#176;&#209;&#143;">
<g id="Page 1">
<g id="Group 3">
<path id="Fill 1" fill-rule="evenodd" clip-rule="evenodd" d="M69.1841 67.7405C69.1841 67.7405 74.2301 55.1105 81.7991 36.1625C82.7021 33.8405 83.8211 31.2275 84.6581 28.8755C84.8651 28.0415 84.6131 26.8685 83.9351 26.1665C83.6021 25.8035 83.1851 25.5365 82.7321 25.4075C82.4981 25.3445 82.2761 25.3175 82.0121 25.3115L80.9201 25.3175C75.0761 25.3385 68.9111 25.3625 62.5361 25.3865C49.7861 25.4375 36.1841 25.4915 22.5821 25.5425C19.1831 25.5545 15.7811 25.5665 12.3941 25.5815L9.85907 25.5905C9.04907 25.5935 7.97807 25.5665 7.83707 25.7165C6.90107 25.9985 6.19007 27.0605 6.17507 28.1255C6.11207 28.9445 7.00007 30.8465 7.46207 32.3375C8.01407 33.9005 8.56007 35.4575 9.10607 37.0055C10.1951 40.0985 11.2721 43.1555 12.3311 46.1645C14.4491 52.1765 16.4981 57.9905 18.4361 63.5015C18.9761 65.1215 19.1861 65.6765 19.9421 66.1145C20.3051 66.3155 20.6021 66.3965 21.0761 66.3905C21.7751 66.3875 22.4681 66.3845 23.1551 66.3815C25.9061 66.3725 28.5611 66.3635 31.1111 66.3515C51.5141 66.2735 65.1161 66.2225 65.1161 66.2225V70.0715C65.1161 70.0715 51.5141 70.0205 31.1111 69.9395C28.5611 69.9305 25.9061 69.9215 23.1551 69.9095C22.4681 69.9065 21.7751 69.9035 21.0761 69.9005C20.1551 69.9215 19.0301 69.6605 18.1721 69.1265C17.2871 68.6015 16.5521 67.8395 16.0631 66.9485C15.5201 65.8955 15.4511 65.3645 15.1691 64.6385C13.2701 59.1125 11.2691 53.2835 9.19607 47.2535C8.16107 44.2385 7.10807 41.1725 6.04307 38.0705C5.50907 36.5195 4.97207 34.9565 4.43507 33.3905L3.62207 31.0295C3.39107 30.3695 2.93807 29.1785 3.00707 28.0325C3.07307 25.7645 4.52507 23.4965 6.85607 22.7465C8.32607 22.3175 8.99207 22.5335 9.85907 22.4825L12.3941 22.4915C15.7811 22.5035 19.1831 22.5185 22.5821 22.5305C36.1841 22.5845 49.7861 22.6355 62.5361 22.6865C68.9111 22.7105 75.0761 22.7345 80.9201 22.7555L82.0121 22.7615C82.4771 22.7675 82.9721 22.8305 83.4341 22.9625C84.3671 23.2355 85.1891 23.7815 85.8071 24.4715C87.0461 25.8755 87.5141 27.7385 87.0521 29.5715C86.0321 32.3885 85.0121 34.6535 84.0551 37.0745C76.3391 55.9625 71.1971 68.5535 71.1971 68.5535L69.1841 67.7405Z" fill="black"/>
</g>
<path id="Fill 4" fill-rule="evenodd" clip-rule="evenodd" d="M66.8655 35.3634H66.8445L22.3755 37.1424C22.1775 37.1514 22.0665 37.2654 22.0215 37.3344C21.9705 37.4004 21.8985 37.5414 21.9495 37.7304L22.8915 41.0154C22.9455 41.2134 23.1285 41.3484 23.3325 41.3484H65.0775C65.2725 41.3484 65.4465 41.2254 65.5125 41.0424L67.3005 35.9784C67.3695 35.7774 67.2915 35.6244 67.2375 35.5524C67.1835 35.4804 67.0665 35.3634 66.8655 35.3634ZM65.0775 43.5984H23.3325C22.1295 43.5984 21.0555 42.7914 20.7285 41.6304L19.7895 38.3484C19.5555 37.5474 19.7055 36.6954 20.1945 36.0144C20.6835 35.3364 21.4485 34.9254 22.2885 34.8954L66.7575 33.1164C67.6845 33.0894 68.5155 33.4914 69.0495 34.2174C69.5805 34.9434 69.7215 35.8824 69.4215 36.7314L67.6335 41.7924C67.2525 42.8724 66.2265 43.5984 65.0775 43.5984Z" fill="black"/>
<path id="Fill 6" fill-rule="evenodd" clip-rule="evenodd" d="M62.0138 56.8704C62.2418 56.8674 62.4278 56.7324 62.4758 56.5134L63.5588 51.9084C63.6008 51.7194 63.5228 51.5814 63.4688 51.5154C63.4178 51.4494 63.3038 51.3414 63.1058 51.3414H63.1028L26.8268 51.5994C26.6258 51.6024 26.5088 51.7164 26.4578 51.7854C26.4068 51.8544 26.3288 51.9954 26.3828 52.1874L27.3158 55.4424C27.3698 55.6344 27.5438 55.7694 27.7418 55.7754L62.0138 56.8704ZM62.0288 59.1204C61.9988 59.1204 61.9718 59.1204 61.9448 59.1204L27.6728 58.0254C26.4908 57.9894 25.4768 57.1974 25.1528 56.0604L24.2198 52.8054C23.9858 51.9834 24.1448 51.1194 24.6578 50.4354C25.1708 49.7514 25.9538 49.3554 26.8088 49.3494L63.0878 49.0914C64.0238 49.0674 64.7078 49.4604 65.2268 50.1144C65.7488 50.7654 65.9408 51.6084 65.7488 52.4244L64.6688 57.0294C64.3808 58.2534 63.2768 59.1204 62.0288 59.1204Z" fill="black"/>
<path id="Fill 8" fill-rule="evenodd" clip-rule="evenodd" d="M19.7029 23.1321C19.7029 23.1321 21.9019 20.4651 25.3669 16.6161C27.1189 14.7051 29.1769 12.4911 31.4539 10.1661C32.6089 9.02007 33.8179 7.85007 35.0989 6.68607C35.7469 6.10707 36.3919 5.52507 37.1089 4.96107L37.6429 4.53507L37.7779 4.43007L37.9429 4.31007L38.2069 4.12407C38.6179 3.84507 39.1039 3.54507 39.6379 3.33507C40.1749 3.11907 40.8619 2.92707 41.6689 3.02907C42.4879 3.11907 43.1989 3.57807 43.6279 3.97407C43.8529 4.17507 44.0329 4.36707 44.1919 4.53807L44.3059 4.66407L44.4319 4.81407L44.4799 4.88007C44.5369 4.95507 44.6029 5.03007 44.7439 5.26707C45.1819 6.03207 45.2659 6.70707 45.2479 7.37307C45.0679 9.96207 43.2949 11.4171 42.2989 12.5061C40.0579 14.8731 37.8529 16.9431 35.9539 18.7101C34.0699 20.4921 32.4169 21.8901 31.2739 22.8801C30.1279 23.8671 29.4439 24.4041 29.4439 24.4041L28.2169 23.0811C28.2169 23.0811 30.5809 20.5941 34.1239 16.8591C35.8819 14.9871 37.9309 12.8031 40.1269 10.4631C40.6219 9.90807 41.3059 9.21207 41.5909 8.78007C41.9389 8.27607 42.1729 7.66107 42.1699 7.26207C42.1849 7.08507 42.0979 6.89307 42.1129 6.91707C42.1579 6.96207 42.0919 6.86907 42.0169 6.77607L41.9659 6.71307L41.9419 6.68307C41.9209 6.65907 42.0709 6.83907 42.0019 6.75507L41.9899 6.74307L41.8909 6.62907C41.7619 6.48507 41.6479 6.36507 41.5549 6.27807C41.3539 6.10107 41.2999 6.08607 41.2549 6.08007C41.2039 6.06807 41.0239 6.07707 40.7689 6.17907C40.4989 6.28107 40.2439 6.42807 39.9379 6.62307L39.6709 6.80607C39.6439 6.82407 39.5479 6.89007 39.5749 6.87207L39.4549 6.96507L38.9779 7.33407C38.3389 7.82007 37.7059 8.37207 37.0849 8.91207C35.8369 10.0041 34.6369 11.1411 33.4789 12.2421C31.1329 14.4231 28.9879 16.5261 27.1639 18.3411C23.4829 21.9471 21.0319 24.3531 21.0319 24.3531L19.7029 23.1321Z" fill="black"/>
<path id="Fill 10" fill-rule="evenodd" clip-rule="evenodd" d="M68.8597 24.9006C68.8597 24.9006 66.4057 23.1126 62.7247 20.4276C60.8887 19.0836 58.7407 17.5296 56.4067 15.9156C55.2427 15.1086 54.0397 14.2746 52.8187 13.4286C52.2007 13.0176 51.5797 12.6036 50.9557 12.1896L50.0107 11.5866C49.7317 11.4096 49.2667 11.1126 49.2787 11.1636C48.9517 11.0436 48.5617 11.0826 48.2647 11.2686C48.1147 11.3166 47.4127 12.1236 47.2387 12.3846C47.0827 12.6576 47.0497 13.0206 47.1817 13.3626C47.2477 13.5306 47.3497 13.6926 47.4817 13.8276C47.5477 13.8966 47.6167 13.9626 47.7007 14.0166L48.1297 14.3226C50.4727 15.9486 52.6207 17.5266 54.4627 18.8766C58.1527 21.5646 60.5497 23.4516 60.5497 23.4516L59.5297 24.9366C59.5297 24.9366 56.9227 23.3616 53.1037 20.8566C51.1927 19.6086 48.9607 18.1566 46.6117 16.5366L46.1617 16.2306C45.9457 16.0836 45.7417 15.9096 45.5527 15.7236C45.1747 15.3456 44.8657 14.8866 44.6557 14.3736C44.2297 13.3566 44.2507 12.0936 44.8237 11.0496C44.9077 10.9086 45.0067 10.7466 45.0907 10.6296L45.2617 10.4046L45.6787 9.91565C45.8467 9.69365 46.3777 9.12965 46.8577 8.88065C47.8597 8.28365 49.1347 8.17265 50.2357 8.59265C50.9707 8.89265 51.1147 9.07565 51.4807 9.28865L52.4467 9.92465C53.0797 10.3566 53.7097 10.7856 54.3367 11.2146C55.5757 12.0756 56.7847 12.9396 57.9397 13.7916C60.2347 15.5136 62.3377 17.1636 64.1317 18.5886C67.6837 21.4866 69.9817 23.4876 69.9817 23.4876L68.8597 24.9006Z" fill="black"/>
</g>
</g>
</svg>
