<svg width="90" height="78" viewBox="0 0 90 78" fill="none" xmlns="http://www.w3.org/2000/svg">
<g id="&#208;&#152;&#208;&#186;&#208;&#190;&#208;&#189;&#208;&#186;&#208;&#184;/&#208;&#155;&#208;&#190;&#208;&#179;&#208;&#184;&#208;&#189;/&#208;&#159;&#209;&#131;&#209;&#129;&#209;&#130;&#208;&#176;&#209;&#143;">
<g id="Page 1">
<path id="Fill 1" fill-rule="evenodd" clip-rule="evenodd" d="M41.3113 26.4515C41.9143 26.4275 42.7573 26.3585 43.7533 26.1905C44.7553 26.0435 45.9013 25.7525 47.1043 25.3775C48.2983 24.9605 49.5583 24.4565 50.7223 23.7635C51.9073 23.1155 52.9903 22.2815 53.9203 21.4235C54.0373 21.3305 54.1303 21.2225 54.2353 21.1205C54.3793 21.3605 54.5443 21.6215 54.7333 21.9035C55.4503 22.9985 56.5183 24.3845 57.7843 25.5905C59.0383 26.8115 60.4813 27.8315 61.6423 28.4555C62.2183 28.7795 62.7193 29.0045 63.0793 29.1455C63.4333 29.2955 63.6343 29.3825 63.6343 29.3825L64.2883 27.7535C64.2883 27.7535 64.1143 27.6695 63.8083 27.5195C63.4993 27.3815 63.0643 27.1595 62.5723 26.8475C61.5733 26.2445 60.3373 25.2755 59.2693 24.1265C58.1893 22.9895 57.2863 21.6875 56.6923 20.6765C56.2903 20.0015 56.0473 19.5035 55.9213 19.2275C56.0203 19.0895 56.1223 18.9515 56.2123 18.8165C56.5003 18.3935 56.8093 18.0035 56.9923 17.6645C57.1753 17.3225 57.3373 17.0285 57.4693 16.7825C57.7333 16.2935 57.8863 16.0145 57.8863 16.0145L56.3623 15.1415C56.3623 15.1415 56.2003 15.4115 55.9123 15.8885C55.7683 16.1255 55.5913 16.4135 55.3903 16.7435C55.1923 17.0765 54.9253 17.3525 54.6613 17.7065C54.4003 18.0515 54.1093 18.4205 53.7253 18.7745C53.3593 19.1315 53.0083 19.5425 52.5523 19.8695C51.7003 20.5805 50.7193 21.2675 49.6483 21.7835C48.6013 22.3415 47.4643 22.7285 46.3963 23.0465C45.3133 23.3255 44.2873 23.5355 43.3963 23.6195C41.6143 23.8325 40.4353 23.7095 40.4983 23.7185L40.3213 26.4635C40.3213 26.4635 40.4173 26.4665 40.6033 26.4695C40.7713 26.4695 41.0143 26.4665 41.3113 26.4515Z" fill="black"/>
<g id="Group 5">
<mask id="mask0" mask-type="alpha" maskUnits="userSpaceOnUse" x="15" y="3" width="58" height="75">
<path id="Clip 4" fill-rule="evenodd" clip-rule="evenodd" d="M72.177 3.00018V77.8455H15V3.00018L72.177 3.00018V3.00018Z" fill="white"/>
</mask>
<g mask="url(#mask0)">
<path id="Fill 3" fill-rule="evenodd" clip-rule="evenodd" d="M35.0119 52.9941C28.6609 46.9821 26.7469 36.0711 26.2669 32.3451C26.6269 32.1831 26.9929 32.0361 27.3529 31.8681C28.1929 31.4691 28.9999 31.0551 29.8369 30.5721C30.2719 30.3261 30.5869 30.1281 31.0159 29.8371C31.3969 29.5671 31.7899 29.3211 32.1589 29.0361C33.6559 27.9411 35.0689 26.7381 36.3679 25.4271C37.6399 24.0801 38.8429 22.7151 39.8599 21.1041L38.4199 20.0991C37.3369 21.3831 36.0919 22.6401 34.7899 23.7621C33.4879 24.8991 32.1229 25.9581 30.6799 26.8881C30.3259 27.1311 29.9479 27.3381 29.5849 27.5661L28.4689 28.2021C27.7519 28.6011 26.9599 28.9881 26.1799 29.3391C25.2859 29.7441 24.3589 30.1161 23.4319 30.4641C23.5939 28.8111 23.7949 27.1521 24.0859 25.5261C24.5149 23.1861 25.0639 20.8491 25.9459 18.7521C26.8609 16.5651 28.0069 14.5911 29.4889 12.7881C30.9499 11.0001 32.6779 9.44308 34.6249 8.24608C36.5689 7.04608 38.7469 6.26307 40.9969 5.90008C43.2349 5.53708 45.6169 5.59408 47.9359 5.90307C52.5619 6.50308 57.0109 8.45007 60.1339 11.8311C63.3019 15.1761 65.0269 19.7271 65.7139 24.3981C66.0979 26.7861 66.1339 29.0031 65.8009 31.3911C65.4769 33.7671 65.0899 36.2991 65.0299 38.8011C64.9009 41.3091 65.0899 43.9011 65.5129 46.3491C65.7139 47.5851 65.9599 48.8031 66.2029 50.0031C66.3169 50.5941 66.4579 51.2241 66.5269 51.7521C66.5899 52.2411 66.5719 52.7091 66.4489 53.1021C66.2119 53.8551 65.5279 54.2421 64.4959 54.2541C63.5089 54.2691 62.3359 53.8941 61.1059 53.6301C59.5399 53.2491 57.8239 53.0481 56.1289 53.1921C60.8239 47.3241 62.7409 38.3331 63.4669 33.4611L61.7299 33.2031C60.6649 40.3851 56.9179 57.0831 45.1939 57.0831C40.9249 57.0831 37.6009 55.4481 35.0119 52.9971V52.9941ZM29.6599 53.6751C28.8559 53.7771 27.9859 53.8881 27.0679 54.0051C26.2669 54.1041 25.3699 54.1011 24.7789 53.8701C24.2089 53.6511 23.9539 53.2821 23.8459 52.4121C23.7589 51.5811 23.9029 50.5581 24.0919 49.5381C24.2809 48.5091 24.5329 47.4561 24.7069 46.3461C24.8809 45.2151 24.9199 44.1201 24.9199 43.0701C24.9229 40.9521 24.5749 39.0051 24.3769 37.4541C24.1639 35.6931 23.9929 34.2711 23.8819 33.3291C24.1159 33.2391 24.3619 33.1551 24.5959 33.0621C25.1749 37.1541 27.1189 47.0001 32.8399 53.2701C31.9789 53.3811 30.9019 53.5161 29.6599 53.6751ZM71.6059 74.5971C71.3239 73.8321 71.1229 73.0521 70.7689 72.3141C70.4359 71.5671 70.0969 70.8321 69.6469 70.1391C69.2599 69.4251 68.7259 68.7861 68.2369 68.1381C67.6879 67.5291 67.1389 66.9291 66.5059 66.4101C65.8879 65.8791 65.2279 65.4021 64.5289 64.9971C63.8389 64.5741 63.1009 64.2441 62.3539 63.9471C61.9699 63.8181 61.5979 63.6801 61.2019 63.5811C60.8059 63.4701 60.4339 63.3951 59.9689 63.3261L59.3389 63.2361L59.0359 63.8331L59.0299 63.8451C58.7749 64.3341 58.3309 64.9131 57.8659 65.3811C57.4069 65.8761 56.8669 66.3051 56.3179 66.7161C55.7509 67.1091 55.1569 67.4631 54.5329 67.7781C53.8999 68.0721 53.2699 68.3751 52.5949 68.5821C51.2749 69.0681 49.8709 69.3351 48.4669 69.5571C47.7589 69.6201 47.0809 69.7191 46.3519 69.7551C45.6289 69.7731 44.8399 69.8211 44.1769 69.8091C42.7369 69.7851 41.3029 69.6981 39.8929 69.4791C38.4859 69.2541 37.0939 68.9331 35.7679 68.4531C35.1109 68.2041 34.4479 67.9521 33.8329 67.6251C33.2029 67.3161 32.6029 66.9561 32.0299 66.5661C31.6129 66.2751 31.2169 65.9601 30.8389 65.6271C31.1719 65.4651 31.6129 65.2281 32.1319 64.9101C33.2239 64.2561 34.6009 63.2571 35.8579 62.1261C37.1239 61.0041 38.2669 59.7591 39.0739 58.7751C39.3379 58.4631 39.5539 58.1871 39.7459 57.9351C41.3869 58.5051 43.1899 58.8381 45.1939 58.8381C46.8349 58.8381 48.3349 58.5591 49.7029 58.0551C50.1109 58.5861 50.7409 59.3811 51.5329 60.2871L52.0519 60.8871C52.8439 61.8081 53.4679 62.5371 54.7879 63.5511L55.8589 62.1621C54.6829 61.2561 54.1639 60.6561 53.3809 59.7441L52.8529 59.1321C52.2409 58.4331 51.7249 57.7971 51.3439 57.3051C52.3129 56.7831 53.2099 56.1441 54.0379 55.4121C56.1619 54.7371 58.4179 54.8841 60.6769 55.4661C61.8349 55.7241 63.0199 56.1741 64.4989 56.2101C65.2219 56.2161 66.0139 56.0961 66.7609 55.6881C67.5109 55.2891 68.0989 54.5361 68.3689 53.7621C68.6329 52.9881 68.6569 52.2021 68.5789 51.4791C68.4979 50.7891 68.3689 50.2191 68.2609 49.6041C68.0359 48.3981 67.8139 47.2101 67.6399 46.0191C67.2739 43.6281 67.1149 41.3001 67.3039 38.9091C67.4389 36.5031 67.7869 34.1781 68.1529 31.7001C68.5369 29.2311 68.5129 26.4951 68.1229 24.0381C67.7599 21.5301 67.1359 19.0341 66.1399 16.6521C65.1409 14.2791 63.7729 12.0201 61.9849 10.1061C60.2119 8.18608 58.0549 6.61708 55.7059 5.49208C53.3569 4.36708 50.8399 3.66508 48.2989 3.30508C45.7669 2.95408 43.1929 2.86408 40.5799 3.26008C37.9909 3.66208 35.4589 4.55607 33.2179 5.91807C30.9739 7.27707 29.0029 9.03808 27.3499 11.0331C25.6939 13.0041 24.3469 15.3171 23.3569 17.6451C22.3249 20.0721 21.7429 22.5411 21.2719 25.0131C20.8219 27.4971 20.4919 29.9481 20.3449 32.4951L20.2219 34.6221L22.1449 33.9711C22.2319 34.8981 22.3489 36.1551 22.4899 37.6611C22.6609 39.3231 22.9339 41.1171 22.8799 43.0551C22.8529 44.0271 22.7929 45.0231 22.6159 45.9921C22.4329 46.9761 22.1569 48.0171 21.9259 49.1031C21.7009 50.1951 21.4729 51.3261 21.5569 52.6161C21.6079 53.2581 21.7579 53.9691 22.1599 54.6351C22.5589 55.3041 23.2309 55.8081 23.8669 56.0691C25.1719 56.5851 26.3059 56.5221 27.3319 56.4501C28.2559 56.3601 29.1289 56.2761 29.9329 56.1981C33.1549 55.8891 35.3029 55.6821 35.3029 55.6821L35.2879 55.5381C35.8699 55.9821 36.4879 56.3841 37.1329 56.7501C37.0519 56.8731 36.9799 56.9841 36.8869 57.1221C36.2329 58.0791 35.2879 59.3211 34.2229 60.4521C33.1669 61.5921 31.9939 62.6121 31.0579 63.2961C30.5959 63.6441 30.1939 63.9081 29.9029 64.0791C29.7499 64.1751 29.6389 64.2441 29.5609 64.2921C29.4229 64.1151 29.2759 63.9351 29.1769 63.7731L28.8499 62.6361L28.2619 62.1291H28.2439C27.7639 62.1291 27.3919 62.9031 26.9869 63.0261C26.5939 63.1461 26.2069 63.5841 25.8289 63.7401C25.0729 64.0491 24.3439 64.5771 23.6539 65.0091C22.9609 65.4381 22.2889 65.9871 21.6739 66.5211C21.3559 66.7791 21.0439 67.0821 20.7619 67.3761C20.4769 67.6641 20.1649 67.9551 19.9009 68.2641C19.3639 68.8761 18.8239 69.5031 18.3649 70.1751C17.8609 70.8201 17.4649 71.5311 17.0359 72.2241C16.6159 72.9231 16.2679 73.7001 15.8869 74.4441L14.9989 76.5501L18.6919 77.8461L19.3189 75.6681C19.5649 75.0381 19.7569 74.3931 20.0449 73.7541C20.3419 73.1211 20.6089 72.4611 20.9749 71.8641C21.2989 71.2371 21.6949 70.6641 22.0909 70.0851C22.2829 69.7911 22.5199 69.5361 22.7329 69.2571C22.9429 68.9751 23.1799 68.7201 23.4229 68.4681C23.8939 67.9491 24.4159 67.4811 24.9619 67.0431C25.5079 66.6051 26.0899 66.2091 26.6989 65.8701C27.0019 65.6991 27.3139 65.5431 27.6289 65.4051C27.7729 65.3391 27.9289 65.2791 28.0759 65.2221C28.4329 65.6961 28.7989 66.1191 29.2069 66.5211C29.7709 67.0821 30.3919 67.5621 31.0339 68.0091C31.6789 68.4501 32.3479 68.8521 33.0439 69.1911C33.7309 69.5541 34.4539 69.8331 35.1739 70.1031C36.6229 70.6281 38.1199 70.9731 39.6259 71.2131C41.1319 71.4471 42.6499 71.5401 44.1619 71.5641C44.9719 71.5731 45.6559 71.5251 46.4119 71.5101C47.1559 71.4741 47.9389 71.3661 48.7009 71.2971C50.2099 71.0571 51.7189 70.7721 53.1739 70.2381C53.9089 70.0071 54.6169 69.6741 55.3189 69.3471C56.0179 68.9961 56.6899 68.5941 57.3349 68.1471C57.9679 67.6761 58.5859 67.1811 59.1349 66.5961C59.5339 66.1761 59.8849 65.7261 60.2179 65.2221C60.3529 65.2671 60.4909 65.3151 60.6229 65.3721C60.9409 65.4891 61.2469 65.6481 61.5559 65.7891C62.1559 66.1161 62.7439 66.4611 63.2779 66.8811C63.8239 67.2861 64.3249 67.7451 64.7809 68.2371C65.2489 68.7201 65.6419 69.2691 66.0319 69.8091C66.3649 70.3941 66.7429 70.9431 66.9889 71.5731C67.2889 72.1701 67.4959 72.8151 67.6999 73.4541C67.9249 74.0841 68.0119 74.7771 68.1769 75.4251C68.2789 76.0971 68.3419 76.7811 68.4319 77.4531L72.1789 76.9431C71.9869 76.1571 71.8189 75.3711 71.6059 74.5971Z" fill="black"/>
</g>
</g>
</g>
</g>
</svg>
