<svg width="90" height="99" viewBox="0 0 90 99" fill="none" xmlns="http://www.w3.org/2000/svg">
<g id="&#208;&#152;&#208;&#186;&#208;&#190;&#208;&#189;&#208;&#186;&#208;&#184;/&#208;&#186;&#208;&#190;&#209;&#129;&#208;&#188;&#208;&#181;&#209;&#130;&#208;&#184;&#208;&#186;&#208;&#176;">
<g id="Page 1">
<path id="Fill 1" fill-rule="evenodd" clip-rule="evenodd" d="M49.9568 41.0278C49.9568 41.0278 53.9198 44.3104 53.2898 48.6871C52.6988 52.7887 47.5868 56.0218 42.3458 57.0851C37.1048 58.1453 29.1458 56.9862 27.9728 56.6122C26.7998 56.2413 24.9488 57.7218 24.7988 59.4682C24.6488 61.2146 35.6048 90.7296 35.6048 90.7296C35.6048 90.7296 45.8108 93.02 57.5348 87.2493C70.0928 81.0706 71.8598 74.1624 71.8598 74.1624L60.6218 42.2735L57.1688 40.116L53.1308 39.3247L49.9568 41.0278Z" fill="#B0A7D2"/>
<path id="Fill 3" fill-rule="evenodd" clip-rule="evenodd" d="M30.2803 66.0988L29.3383 64.0063C29.3383 64.0063 41.1043 63.1655 46.5823 61.2121C52.7893 59.0021 58.8253 53.6239 58.8253 53.6239C58.8253 53.6239 63.9343 68.6055 64.2103 69.6564C64.4833 70.7074 59.0653 74.333 57.3613 75.3746C55.6543 76.4163 48.9103 80.5272 43.2973 80.7992C37.6873 81.0743 35.0743 81.1021 35.0743 81.1021L30.2803 66.0988Z" fill="white"/>
<g id="Group 10">
<mask id="mask0" mask-type="alpha" maskUnits="userSpaceOnUse" x="15" y="0" width="36" height="55">
<path id="Clip 9" fill-rule="evenodd" clip-rule="evenodd" d="M50.3603 0.0905457H15V54.9204H50.3603V0.0905457Z" fill="white"/>
</mask>
<g mask="url(#mask0)">
<path id="Fill 8" fill-rule="evenodd" clip-rule="evenodd" d="M48.8063 45.5353L31.6403 2.68909L32.7473 3.66273C32.4653 3.59164 32.0843 3.51436 31.7423 3.45873C31.3943 3.39691 31.0373 3.34436 30.6833 3.30418C29.9723 3.22382 29.2553 3.16818 28.5473 3.16509C27.1313 3.162 25.7153 3.30109 24.4343 3.71527L23.9543 3.876C23.8523 3.90691 23.6183 4.012 23.4593 4.07691C23.0813 4.22527 22.8053 4.37054 22.4873 4.51582C21.8483 4.84036 21.2183 5.19273 20.6093 5.58836C20.0003 5.98709 19.4093 6.41673 18.8453 6.88036C18.5603 7.10909 18.2873 7.35018 18.0173 7.59436C17.7563 7.83236 17.4773 8.10745 17.2703 8.32691V8.33L17.5163 7.13073L31.0703 52.8669L30.4913 52.3136C31.3343 52.5114 32.2193 52.6815 33.0893 52.8236C33.9623 52.9627 34.8413 53.0771 35.7173 53.1605C36.5963 53.2285 37.4753 53.2904 38.3423 53.2718C38.7773 53.2811 39.2033 53.2347 39.6353 53.2162C40.0523 53.1575 40.4873 53.1358 40.8893 53.0338C41.3063 52.9689 41.6843 52.836 42.0713 52.7155C42.4493 52.5609 42.9143 52.3816 43.2983 52.2055C44.0813 51.8593 44.8673 51.4482 45.6173 51.0062C46.3643 50.5549 47.0843 50.0573 47.7533 49.5071C48.0893 49.232 49.1663 48.3233 49.3283 47.6371L49.6523 48.0204C50.0873 48.5304 50.0963 49.2907 49.6793 49.8162C49.3403 50.2489 48.9593 50.6136 48.7493 50.7867C48.0083 51.3956 47.2283 51.9365 46.4183 52.4249C45.6023 52.904 44.7803 53.3367 43.9043 53.7231C43.4663 53.924 43.0823 54.0693 42.6233 54.2578C42.1463 54.4124 41.6693 54.57 41.1923 54.6473C40.7153 54.7616 40.2443 54.7895 39.7703 54.8544C39.2993 54.876 38.8253 54.9255 38.3603 54.9162C37.4243 54.9378 36.5003 54.8729 35.5793 54.7987C34.6583 54.7153 33.7463 54.5947 32.8403 54.4495C31.9283 54.3042 31.0403 54.1342 30.1223 53.9178L29.6873 53.8158L29.5433 53.3615L15.2093 7.87873L14.9993 7.21727L15.4553 6.68254L15.4583 6.67636C15.7703 6.31473 16.0403 6.03654 16.3373 5.73364C16.6343 5.44309 16.9313 5.15873 17.2433 4.88673C17.8583 4.34273 18.5033 3.82964 19.1723 3.35054C19.8443 2.87454 20.5433 2.44182 21.2693 2.03691C21.6413 1.84527 22.0493 1.62273 22.3823 1.47745C22.5773 1.39091 22.6943 1.326 22.9493 1.22091L23.5553 0.98909C25.1843 0.392545 26.8613 0.166908 28.5053 0.101999C29.3303 0.0710901 30.1493 0.101999 30.9653 0.160726C31.3763 0.188545 31.7813 0.231817 32.1923 0.284363C32.6093 0.339999 32.9873 0.395636 33.4523 0.491454H33.4553L34.2623 0.679999L34.5653 1.46509L50.0963 41.5109C50.4593 42.4536 50.4953 43.078 49.9013 44.3545C49.4093 45.4055 48.8063 45.5353 48.8063 45.5353Z" fill="#181716"/>
</g>
</g>
<path id="Fill 11" fill-rule="evenodd" clip-rule="evenodd" d="M37.5922 67.3658C38.8192 67.2205 40.0492 67.066 41.2762 66.8558C41.8912 66.7569 42.5002 66.6425 43.1212 66.522C43.7512 66.3921 44.3752 66.2592 44.9572 66.1078C45.5782 65.9594 46.2112 65.7616 46.8202 65.5607C47.4322 65.3474 48.0322 65.1187 48.6172 64.8621C49.2082 64.618 49.7812 64.3367 50.3482 64.0523C50.9152 63.7649 51.4732 63.4651 52.0222 63.1498C53.1202 62.5254 54.1912 61.8578 55.2352 61.1531C55.7572 60.8007 56.2732 60.4391 56.7772 60.062C56.8492 60.0094 56.9212 59.9538 56.9932 59.9012C56.9932 59.9012 60.4642 69.0658 60.7642 70.0425C60.9922 70.7936 60.9652 71.4087 60.9652 71.4087C61.0402 71.4983 61.3882 71.4551 61.8982 70.9698C62.3722 70.5185 62.7292 69.6036 62.4742 68.8401L58.6852 57.4841L58.1512 55.8954L56.8012 56.9278V56.9309C56.3512 57.2771 55.8532 57.6387 55.3642 57.9787L53.8732 58.9925C52.8712 59.654 51.8482 60.2783 50.8102 60.8594C49.7722 61.4498 48.7042 61.9598 47.6332 62.4327C47.0962 62.6676 46.5532 62.8778 46.0102 63.0694C45.4612 63.2549 44.9272 63.428 44.3632 63.564C43.7632 63.7216 43.1902 63.8452 42.6262 63.9658C42.0502 64.0801 41.4592 64.1945 40.8712 64.2934C39.6952 64.5005 38.5012 64.6551 37.3102 64.8034C36.1162 64.9518 34.9132 65.0291 33.7132 65.1403C32.5132 65.2454 31.2982 65.3196 30.1132 65.3629L28.4392 65.4247L34.6462 82.2516L35.2852 82.2547C36.4192 82.2516 37.4812 82.2207 38.5942 82.1651C39.7012 82.1094 40.7902 82.0383 41.9002 81.9301C43.0072 81.8281 44.1052 81.6952 45.2122 81.5221C46.3192 81.3521 47.4172 81.1296 48.5212 80.8545C49.0702 80.7031 49.6192 80.5578 50.1652 80.36C50.7142 80.1683 51.2572 79.9581 51.7612 79.7201C52.8202 79.2318 53.7982 78.6909 54.7702 78.1067C56.2252 77.2258 57.3562 76.5581 58.9942 75.2291C59.7082 74.6511 59.8912 73.6249 59.3512 72.8738L59.2702 72.7749C57.8182 74.3172 55.8262 75.5505 53.9512 76.6292C53.0182 77.164 52.0462 77.6647 51.0952 78.0758C50.5972 78.2983 50.1082 78.4683 49.6162 78.6291C49.1242 78.7929 48.6082 78.9165 48.0952 79.0463C47.0602 79.2781 46.0072 79.4667 44.9422 79.6027C43.8772 79.7449 42.8032 79.8469 41.7232 79.9211C40.6462 80.0014 39.5632 80.0416 38.4832 80.0725C37.6492 80.0941 36.8122 80.0972 35.9812 80.088L31.8352 67.8418C32.5252 67.8047 33.2152 67.7614 33.9052 67.712C35.1352 67.6223 36.3652 67.508 37.5922 67.3658Z" fill="#181716"/>
<path id="Fill 5" fill-rule="evenodd" clip-rule="evenodd" d="M26.9545 51.5613C26.9545 51.5613 26.4115 51.6046 25.6165 52.1146C24.7915 52.6462 23.6065 53.4931 22.4845 54.8439C22.2175 55.1684 21.9205 55.5857 21.7195 55.9257L21.6145 56.1111C21.5845 56.1668 21.5815 56.1853 21.5605 56.2255C21.5335 56.2873 21.4855 56.3955 21.4525 56.4851C21.3835 56.6706 21.3265 56.8684 21.2845 57.0724C21.1975 57.4804 21.1825 57.9224 21.2575 58.3706C21.3115 58.7229 21.5695 59.4895 21.7555 60.1479C22.5775 62.8617 23.4505 65.9402 24.4135 69.2938C25.3855 72.6444 26.4385 76.2731 27.5515 80.112C28.1215 82.0253 28.7035 83.9911 29.3035 86.0002C29.6065 86.9986 29.9155 88.0093 30.2275 89.0293C30.5425 90.0153 30.8845 91.128 31.2055 91.9626L31.2625 92.1171C31.2235 92.0491 31.3705 92.3242 31.1815 91.9749L31.2085 92.0182L31.2625 92.1017L31.3195 92.1882C31.3345 92.2037 31.3165 92.1573 31.3135 92.148C31.2955 92.114 31.2715 92.0831 31.2415 92.0646C31.2415 92.0646 31.3315 92.1171 31.3705 92.1511L31.6075 92.2717C31.9705 92.4324 32.4175 92.5777 32.8885 92.6951C33.8305 92.9331 34.8625 93.0815 35.9005 93.1897C37.9885 93.4029 40.1515 93.4277 42.3205 93.3411C46.6525 93.134 51.0985 92.4819 55.1605 90.9673C55.4185 90.8777 55.6615 90.7664 55.9105 90.6675L56.2645 90.5191L56.6515 90.3398C57.1585 90.0988 57.7015 89.87 58.1815 89.6166C59.1535 89.1344 60.1285 88.6058 61.0885 88.0526C62.9995 86.9368 64.8385 85.6942 66.5455 84.3311C68.2315 82.9711 69.8845 81.4751 71.0155 79.8586C71.1565 79.6577 71.2525 79.4629 71.3755 79.2682C71.4355 79.1693 71.4505 79.0889 71.4925 78.9993C71.5165 78.9251 71.5945 78.8046 71.5795 78.7675C71.5825 78.7149 71.5975 78.6686 71.6185 78.6191C71.6215 78.5851 71.6275 78.8726 71.6215 78.7242L71.6155 78.6717L71.6005 78.5697L71.5735 78.3626C71.5465 78.0597 71.4745 77.8742 71.4205 77.6486C71.3275 77.2468 71.1745 76.7028 71.0275 76.1835C70.8865 75.6673 70.7245 75.148 70.5685 74.6288C69.3055 70.49 67.9465 66.4966 66.6655 62.7195C65.3695 58.9393 64.1425 55.3693 63.0115 52.0713C62.4415 50.4239 61.8925 48.8475 61.3735 47.3453C61.1095 46.5973 60.8545 45.8648 60.6055 45.1539C60.3415 44.4213 60.1645 43.7784 59.8645 43.3148C59.5675 42.8202 59.1865 42.4029 58.7605 42.0846C58.5445 41.9269 58.3225 41.7909 58.0915 41.6797C57.8575 41.5622 57.6475 41.4942 57.3415 41.3891C56.3005 41.0615 55.2595 40.8822 54.3325 40.8049C52.4575 40.6566 50.9605 40.8575 49.9555 41.0275C49.4545 41.1233 49.0675 41.2006 48.8125 41.2655C48.5515 41.3273 48.4195 41.3582 48.4195 41.3582C48.2875 40.8482 48.1585 40.3351 48.0265 39.822C48.1645 39.7849 48.3025 39.7479 48.4405 39.7108C48.7135 39.6335 49.1245 39.5346 49.6645 39.414C50.7415 39.1977 52.3555 38.9226 54.4465 39.0215C55.4935 39.074 56.6365 39.2379 57.8875 39.6088C58.1485 39.6922 58.5235 39.8066 58.8505 39.9642C59.1865 40.1188 59.5135 40.3073 59.8285 40.5299C60.4555 40.978 61.0165 41.5684 61.4605 42.2762C61.5715 42.4524 61.6705 42.6348 61.7695 42.8264L61.9135 43.1386L62.0155 43.3951C62.1475 43.7444 62.2795 44.0999 62.4145 44.4615C62.6755 45.1693 62.9455 45.8957 63.2215 46.6406C63.7735 48.1335 64.3495 49.7006 64.9525 51.3388C66.1555 54.6151 67.4515 58.1666 68.7745 61.9437C70.0975 65.7239 71.4955 69.6988 72.8215 73.8931C72.9865 74.4186 73.1575 74.9409 73.3105 75.4849C73.4665 76.0228 73.6285 76.5389 73.7845 77.2159C73.8565 77.5311 73.9465 77.8773 73.9705 78.1339L74.0005 78.3409L74.0155 78.4429L74.0215 78.4955C74.0185 78.3842 74.0365 78.7057 74.0305 78.7057C74.0035 78.9313 73.9675 79.1569 73.9225 79.3826C73.8835 79.6268 73.7995 79.7473 73.7365 79.9359C73.6645 80.0997 73.6015 80.2913 73.5205 80.4335C73.3555 80.7148 73.1995 81.0208 73.0225 81.2773C71.6035 83.3328 69.8815 84.8658 68.0905 86.3588C66.2875 87.83 64.3705 89.156 62.3695 90.3522C61.3675 90.9426 60.3475 91.5113 59.2885 92.0522C58.7605 92.3335 58.2565 92.5499 57.7375 92.8033L57.3535 92.9857L56.9215 93.1742C56.6455 93.2886 56.3725 93.4153 56.0905 93.5173C51.6385 95.2266 47.0095 95.9344 42.4525 96.2064C40.1695 96.3239 37.9015 96.3239 35.6335 96.1199C34.4995 96.0117 33.3715 95.8664 32.2165 95.5913C31.6375 95.4491 31.0525 95.2791 30.4315 95.0071L29.9485 94.766C29.7655 94.6455 29.6245 94.5651 29.4115 94.3982C29.2825 94.2869 29.1565 94.1633 29.0425 94.0366C28.9915 93.9779 28.9195 93.8913 28.8925 93.8542L28.8355 93.7708L28.7785 93.6842L28.7515 93.644C28.5385 93.2669 28.6795 93.5049 28.6255 93.406L28.5325 93.1804C28.0615 91.9873 27.7735 91.0291 27.4225 89.9782C27.0955 88.952 26.7745 87.9351 26.4535 86.9306C25.8355 84.9215 25.2265 82.9526 24.6385 81.0393C23.4835 77.2035 22.3915 73.5809 21.3865 70.2335C20.3875 66.886 19.4695 63.8199 18.7135 61.0844C18.5305 60.3735 18.3145 59.8419 18.1495 58.8837C18.0175 58.0213 18.0565 57.162 18.2335 56.3708C18.3205 55.972 18.4405 55.5919 18.5995 55.2364C18.6775 55.054 18.7525 54.8995 18.8545 54.7079L19.0045 54.4451L19.1185 54.2659C19.5145 53.6631 19.8655 53.2335 20.2555 52.7946C21.9355 50.9679 25.0825 48.9959 26.9545 51.5613Z" fill="#181716"/>
</g>
</g>
</svg>
