<svg width="90" height="78" viewBox="0 0 90 78" fill="none" xmlns="http://www.w3.org/2000/svg">
<g id="&#208;&#152;&#208;&#186;&#208;&#190;&#208;&#189;&#208;&#186;&#208;&#184;/&#208;&#152;&#208;&#183;&#208;&#177;&#209;&#128;&#208;&#176;&#208;&#189;&#208;&#189;&#208;&#190;&#208;&#181;/&#208;&#159;&#209;&#131;&#209;&#129;&#209;&#130;&#208;&#176;&#209;&#143;">
<g id="Page 1">
<path id="Fill 1" fill-rule="evenodd" clip-rule="evenodd" d="M42.7607 30.1557C44.4797 26.0607 46.7237 22.2357 49.6427 18.8067C51.1487 17.1477 52.7867 15.5367 54.7937 14.3457C56.7527 13.1307 59.0267 12.1857 61.4417 12.0657C63.8177 11.7837 66.3317 12.4407 68.3177 13.2117C70.6277 14.2047 72.5567 15.5637 74.1737 17.3097C75.7397 19.0647 77.0567 21.0627 77.8697 23.2497C78.7937 25.4007 79.2197 27.7077 79.4597 30.0087C79.5857 32.3157 79.5317 34.6587 78.9737 36.9177C78.5207 39.1947 77.6537 41.3787 76.5557 43.4307C75.4097 45.4227 73.8977 47.3907 72.3167 48.8907C70.8167 50.4327 69.0617 52.1967 67.4027 53.5917C60.6047 59.2197 53.2187 62.2077 45.4637 68.2077H45.4577L44.1137 68.6817L43.3967 67.1757C42.6257 65.6727 41.5997 64.0347 40.5227 62.6007C39.4427 61.1457 38.2427 59.7507 36.9647 58.4727C35.6987 57.1857 34.3517 55.9647 32.9117 54.8877C31.4927 53.7747 29.9417 52.8507 28.3697 51.9897C26.7047 51.0957 24.9827 50.1687 23.3357 49.0347C21.6887 47.9637 20.1407 46.7067 18.6917 45.3297C15.8237 42.5727 13.4177 39.0177 12.5057 34.9587C12.0287 32.9487 11.9027 30.8697 12.0707 28.8447C12.1097 28.3407 12.1967 27.8397 12.2567 27.3387C12.3047 27.0507 12.2957 26.9247 12.3887 26.5017L12.5567 25.8147C12.7247 24.9357 13.0997 23.9127 13.4927 22.9017C14.3447 21.0117 15.3527 19.2327 16.7477 17.7177C18.0737 16.1607 19.6967 14.8347 21.5387 13.8867C23.3327 12.8307 25.4297 12.4167 27.4727 12.1767C29.5367 12.1467 31.6127 12.3687 33.4997 13.1007C34.4537 13.4397 35.3897 13.8057 36.2327 14.3397C37.1057 14.8197 37.9757 15.2997 38.7287 15.9297C40.3607 17.0457 41.7077 18.4467 43.1057 19.7847L41.8967 20.9817C40.4927 19.7907 39.1457 18.5307 37.5887 17.5977C36.8597 17.0487 36.0467 16.6677 35.2427 16.2837C34.4597 15.8367 33.6137 15.5757 32.7737 15.3207C31.1087 14.7387 29.3657 14.6487 27.6677 14.7177C25.9997 15.0057 24.3137 15.3687 22.8677 16.3137C21.3917 17.1567 20.0537 18.2757 18.9677 19.6197C17.8157 20.9037 16.9907 22.4847 16.3247 24.0297C16.0547 24.7917 15.7607 25.5297 15.5867 26.5167L15.4337 27.2067L15.3707 27.7707L15.2357 29.0757C15.1307 30.8157 15.2957 32.5377 15.6737 34.2027C16.4267 37.5477 18.4157 40.5267 20.9597 42.9747C23.5637 45.4617 26.5427 47.3397 29.8877 49.0737C31.6277 50.0187 33.3347 51.0327 34.8917 52.2507C36.4667 53.4357 37.9607 54.7317 39.3107 56.1627C40.6667 57.5847 41.9237 59.0967 43.0577 60.6987C44.2007 62.3127 45.2117 63.9747 46.1207 65.8557L44.0567 65.2077H44.0627C47.7677 62.2077 51.4337 60.8097 54.9767 58.4277C58.5437 56.0727 62.0297 53.5647 65.2817 50.8437C66.9257 49.4487 68.4347 48.1287 69.9527 46.5717C71.5067 45.0837 72.6167 43.5627 73.6487 41.8227C74.5787 40.0647 75.3317 38.1897 75.7157 36.2187C76.2107 34.2687 76.2227 32.2377 76.1867 30.2367C76.0187 28.2477 75.7037 26.2377 74.9507 24.3927C74.3027 22.4997 73.2227 20.8107 71.9627 19.3137C70.6787 17.8407 69.0107 16.6707 67.3757 15.8907C65.3777 15.0777 63.5807 14.5827 61.6307 14.7507C59.7077 14.7867 57.8297 15.5127 56.1137 16.5177C54.3557 17.4867 52.8527 18.9357 51.4007 20.4027C48.5687 23.4357 46.2107 27.0627 44.4197 30.8607L42.7607 30.1557Z" fill="#181716"/>
</g>
</g>
</svg>
